<svg width="231" height="151" viewBox="0 0 231 151" fill="none" xmlns="http://www.w3.org/2000/svg">
<rect width="231" height="151" fill="#D9D9D9"/>
<rect x="13" y="51" width="206" height="68" rx="4" fill="white"/>
<rect width="80" height="4" transform="translate(25 61)" fill="#D9D9D9"/>
<rect width="80" height="4" transform="translate(25 71)" fill="#D9D9D9"/>
<rect width="45" height="4" transform="translate(25 81)" fill="#D9D9D9"/>
<rect x="25" y="96" width="42" height="12" rx="2" fill="#D9D9D9"/>
<mask id="mask0_40_210" style="mask-type:luminance" maskUnits="userSpaceOnUse" x="134" y="61" width="73" height="48">
<path d="M207 61H134V108.45H207V61Z" fill="white"/>
</mask>
<g mask="url(#mask0_40_210)">
<path d="M206.368 61H134.632C134.283 61 134 61.2814 134 61.6285V107.822C134 108.169 134.283 108.45 134.632 108.45H206.368C206.717 108.45 207 108.169 207 107.822V61.6285C207 61.2814 206.717 61 206.368 61Z" fill="white"/>
<path d="M161.33 107.201L144.651 85.9207L115.722 108.34L132.401 129.621L161.33 107.201Z" fill="#BCBCBC"/>
<path d="M177.895 111.388L161.216 90.107L132.286 112.527L148.966 133.807L177.895 111.388Z" fill="#BCBCBC"/>
<path d="M193.727 81.1113C197.043 81.1113 199.732 78.4382 199.732 75.1407C199.732 71.8433 197.043 69.1702 193.727 69.1702C190.411 69.1702 187.723 71.8433 187.723 75.1407C187.723 78.4382 190.411 81.1113 193.727 81.1113Z" fill="#BCBCBC"/>
<path d="M185.037 82.9967H155.647C155.211 82.9967 154.857 83.3484 154.857 83.7823C154.857 84.2162 155.211 84.5679 155.647 84.5679H185.037C185.473 84.5679 185.827 84.2162 185.827 83.7823C185.827 83.3484 185.473 82.9967 185.037 82.9967Z" fill="#B8B8B8"/>
<path d="M181.561 86.7676H159.123C158.687 86.7676 158.333 87.1193 158.333 87.5532C158.333 87.987 158.687 88.3388 159.123 88.3388H181.561C181.997 88.3388 182.351 87.987 182.351 87.5532C182.351 87.1193 181.997 86.7676 181.561 86.7676Z" fill="#B8B8B8"/>
</g>
</svg>
