<svg width="231" height="151" viewBox="0 0 231 151" fill="none" xmlns="http://www.w3.org/2000/svg">
<rect width="231" height="151" fill="#D9D9D9"/>
<g clip-path="url(#clip0_5_14)">
<mask id="mask0_5_14" style="mask-type:luminance" maskUnits="userSpaceOnUse" x="101" y="37" width="120" height="78">
<path d="M221 37H101V115H221V37Z" fill="white"/>
</mask>
<g mask="url(#mask0_5_14)">
<path d="M219.961 37H102.039C101.465 37 101 37.4625 101 38.0331V113.967C101 114.537 101.465 115 102.039 115H219.961C220.535 115 221 114.537 221 113.967V38.0331C221 37.4625 220.535 37 219.961 37Z" fill="white"/>
<path d="M145.927 112.947L118.509 77.9656L70.9536 114.82L98.3713 149.802L145.927 112.947Z" fill="#BCBCBC"/>
<path d="M173.156 119.829L145.739 84.8472L98.1831 121.701L125.601 156.683L173.156 119.829Z" fill="#BCBCBC"/>
<path d="M199.182 70.0596C204.633 70.0596 209.052 65.6655 209.052 60.2451C209.052 54.8246 204.633 50.4305 199.182 50.4305C193.731 50.4305 189.312 54.8246 189.312 60.2451C189.312 65.6655 193.731 70.0596 199.182 70.0596Z" fill="#BCBCBC"/>
<path d="M184.896 73.1589H136.584C135.867 73.1589 135.286 73.7371 135.286 74.4503C135.286 75.1635 135.867 75.7417 136.584 75.7417H184.896C185.613 75.7417 186.195 75.1635 186.195 74.4503C186.195 73.7371 185.613 73.1589 184.896 73.1589Z" fill="#B8B8B8"/>
<path d="M179.182 79.3576H142.299C141.581 79.3576 141 79.9358 141 80.649C141 81.3622 141.581 81.9404 142.299 81.9404H179.182C179.899 81.9404 180.481 81.3622 180.481 80.649C180.481 79.9358 179.899 79.3576 179.182 79.3576Z" fill="#B8B8B8"/>
</g>
</g>
<rect x="101.5" y="37.5" width="119" height="77" stroke="#D9D9D9"/>
<line x1="6" y1="59.5" x2="69" y2="59.5" stroke="white" stroke-width="3"/>
<line x1="6" y1="71.0294" x2="46" y2="71.0294" stroke="white" stroke-width="3"/>
<line x1="6" y1="79.2647" x2="46" y2="79.2647" stroke="white" stroke-width="3"/>
<line x1="6" y1="87.5" x2="46" y2="87.5" stroke="white" stroke-width="3"/>
<rect x="6" y="106" width="34" height="10" fill="white"/>
<rect x="6" y="37" width="31" height="7" rx="3.5" fill="white"/>
<defs>
<clipPath id="clip0_5_14">
<rect x="101" y="37" width="120" height="78" fill="white"/>
</clipPath>
</defs>
</svg>
