<svg width="231" height="151" viewBox="0 0 231 151" fill="none" xmlns="http://www.w3.org/2000/svg">
<g clip-path="url(#clip0_7_34)">
<rect width="231" height="151" fill="#D9D9D9"/>
<g clip-path="url(#clip1_7_34)">
<mask id="mask0_7_34" style="mask-type:luminance" maskUnits="userSpaceOnUse" x="21" y="68" width="43" height="28">
<path d="M64 68H21V96H64V68Z" fill="white"/>
</mask>
<g mask="url(#mask0_7_34)">
<path d="M63.6277 68H21.3723C21.1667 68 21 68.166 21 68.3709V95.6291C21 95.834 21.1667 96 21.3723 96H63.6277C63.8333 96 64 95.834 64 95.6291V68.3709C64 68.166 63.8333 68 63.6277 68Z" fill="white"/>
<path d="M37.0988 95.2632L27.2741 82.7056L10.2334 95.9353L20.058 108.493L37.0988 95.2632Z" fill="#BCBCBC"/>
<path d="M46.856 97.7335L37.0313 85.1759L19.9906 98.4056L29.8152 110.963L46.856 97.7335Z" fill="#BCBCBC"/>
<path d="M56.1818 79.8675C58.1351 79.8675 59.7186 78.2901 59.7186 76.3443C59.7186 74.3985 58.1351 72.8212 56.1818 72.8212C54.2285 72.8212 52.645 74.3985 52.645 76.3443C52.645 78.2901 54.2285 79.8675 56.1818 79.8675Z" fill="#BCBCBC"/>
<path d="M51.0628 80.9801H33.7511C33.4941 80.9801 33.2857 81.1877 33.2857 81.4437C33.2857 81.6997 33.4941 81.9073 33.7511 81.9073H51.0628C51.3198 81.9073 51.5281 81.6997 51.5281 81.4437C51.5281 81.1877 51.3198 80.9801 51.0628 80.9801Z" fill="#B8B8B8"/>
<path d="M49.0151 83.2053H35.7987C35.5417 83.2053 35.3333 83.4129 35.3333 83.6689C35.3333 83.9249 35.5417 84.1325 35.7987 84.1325H49.0151C49.2721 84.1325 49.4805 83.9249 49.4805 83.6689C49.4805 83.4129 49.2721 83.2053 49.0151 83.2053Z" fill="#B8B8B8"/>
</g>
</g>
<rect x="21.5" y="68.5" width="42" height="27" stroke="#D9D9D9"/>
<g clip-path="url(#clip2_7_34)">
<mask id="mask1_7_34" style="mask-type:luminance" maskUnits="userSpaceOnUse" x="68" y="68" width="43" height="28">
<path d="M111 68H68V96H111V68Z" fill="white"/>
</mask>
<g mask="url(#mask1_7_34)">
<path d="M110.628 68H68.3723C68.1667 68 68 68.166 68 68.3709V95.6291C68 95.834 68.1667 96 68.3723 96H110.628C110.833 96 111 95.834 111 95.6291V68.3709C111 68.166 110.833 68 110.628 68Z" fill="white"/>
<path d="M84.0988 95.2632L74.2741 82.7056L57.2334 95.9353L67.058 108.493L84.0988 95.2632Z" fill="#BCBCBC"/>
<path d="M93.856 97.7335L84.0313 85.1759L66.9906 98.4056L76.8152 110.963L93.856 97.7335Z" fill="#BCBCBC"/>
<path d="M103.182 79.8675C105.135 79.8675 106.719 78.2901 106.719 76.3443C106.719 74.3985 105.135 72.8212 103.182 72.8212C101.228 72.8212 99.645 74.3985 99.645 76.3443C99.645 78.2901 101.228 79.8675 103.182 79.8675Z" fill="#BCBCBC"/>
<path d="M98.0628 80.9801H80.7511C80.4941 80.9801 80.2857 81.1877 80.2857 81.4437C80.2857 81.6997 80.4941 81.9073 80.7511 81.9073H98.0628C98.3198 81.9073 98.5281 81.6997 98.5281 81.4437C98.5281 81.1877 98.3198 80.9801 98.0628 80.9801Z" fill="#B8B8B8"/>
<path d="M96.0151 83.2053H82.7987C82.5417 83.2053 82.3333 83.4129 82.3333 83.6689C82.3333 83.9249 82.5417 84.1325 82.7987 84.1325H96.0151C96.2721 84.1325 96.4805 83.9249 96.4805 83.6689C96.4805 83.4129 96.2721 83.2053 96.0151 83.2053Z" fill="#B8B8B8"/>
</g>
</g>
<rect x="68.5" y="68.5" width="42" height="27" stroke="#D9D9D9"/>
<g clip-path="url(#clip3_7_34)">
<mask id="mask2_7_34" style="mask-type:luminance" maskUnits="userSpaceOnUse" x="115" y="68" width="43" height="28">
<path d="M158 68H115V96H158V68Z" fill="white"/>
</mask>
<g mask="url(#mask2_7_34)">
<path d="M157.628 68H115.372C115.167 68 115 68.166 115 68.3709V95.6291C115 95.834 115.167 96 115.372 96H157.628C157.833 96 158 95.834 158 95.6291V68.3709C158 68.166 157.833 68 157.628 68Z" fill="white"/>
<path d="M131.099 95.2632L121.274 82.7056L104.233 95.9353L114.058 108.493L131.099 95.2632Z" fill="#BCBCBC"/>
<path d="M140.856 97.7335L131.031 85.1759L113.991 98.4056L123.815 110.963L140.856 97.7335Z" fill="#BCBCBC"/>
<path d="M150.182 79.8675C152.135 79.8675 153.719 78.2901 153.719 76.3443C153.719 74.3985 152.135 72.8212 150.182 72.8212C148.228 72.8212 146.645 74.3985 146.645 76.3443C146.645 78.2901 148.228 79.8675 150.182 79.8675Z" fill="#BCBCBC"/>
<path d="M145.063 80.9801H127.751C127.494 80.9801 127.286 81.1877 127.286 81.4437C127.286 81.6997 127.494 81.9073 127.751 81.9073H145.063C145.32 81.9073 145.528 81.6997 145.528 81.4437C145.528 81.1877 145.32 80.9801 145.063 80.9801Z" fill="#B8B8B8"/>
<path d="M143.015 83.2053H129.799C129.542 83.2053 129.333 83.4129 129.333 83.6689C129.333 83.9249 129.542 84.1325 129.799 84.1325H143.015C143.272 84.1325 143.48 83.9249 143.48 83.6689C143.48 83.4129 143.272 83.2053 143.015 83.2053Z" fill="#B8B8B8"/>
</g>
</g>
<rect x="115.5" y="68.5" width="42" height="27" stroke="#D9D9D9"/>
<g clip-path="url(#clip4_7_34)">
<mask id="mask3_7_34" style="mask-type:luminance" maskUnits="userSpaceOnUse" x="162" y="68" width="43" height="28">
<path d="M205 68H162V96H205V68Z" fill="white"/>
</mask>
<g mask="url(#mask3_7_34)">
<path d="M204.628 68H162.372C162.167 68 162 68.166 162 68.3709V95.6291C162 95.834 162.167 96 162.372 96H204.628C204.833 96 205 95.834 205 95.6291V68.3709C205 68.166 204.833 68 204.628 68Z" fill="white"/>
<path d="M178.099 95.2632L168.274 82.7056L151.233 95.9353L161.058 108.493L178.099 95.2632Z" fill="#BCBCBC"/>
<path d="M187.856 97.7335L178.031 85.1759L160.991 98.4056L170.815 110.963L187.856 97.7335Z" fill="#BCBCBC"/>
<path d="M197.182 79.8675C199.135 79.8675 200.719 78.2901 200.719 76.3443C200.719 74.3985 199.135 72.8212 197.182 72.8212C195.228 72.8212 193.645 74.3985 193.645 76.3443C193.645 78.2901 195.228 79.8675 197.182 79.8675Z" fill="#BCBCBC"/>
<path d="M192.063 80.9801H174.751C174.494 80.9801 174.286 81.1877 174.286 81.4437C174.286 81.6997 174.494 81.9073 174.751 81.9073H192.063C192.32 81.9073 192.528 81.6997 192.528 81.4437C192.528 81.1877 192.32 80.9801 192.063 80.9801Z" fill="#B8B8B8"/>
<path d="M190.015 83.2053H176.799C176.542 83.2053 176.333 83.4129 176.333 83.6689C176.333 83.9249 176.542 84.1325 176.799 84.1325H190.015C190.272 84.1325 190.481 83.9249 190.481 83.6689C190.481 83.4129 190.272 83.2053 190.015 83.2053Z" fill="#B8B8B8"/>
</g>
</g>
<rect x="162.5" y="68.5" width="42" height="27" stroke="#D9D9D9"/>
<g clip-path="url(#clip5_7_34)">
<mask id="mask4_7_34" style="mask-type:luminance" maskUnits="userSpaceOnUse" x="-26" y="68" width="43" height="28">
<path d="M17 68H-26V96H17V68Z" fill="white"/>
</mask>
<g mask="url(#mask4_7_34)">
<path d="M16.6277 68H-25.6277C-25.8333 68 -26 68.166 -26 68.3709V95.6291C-26 95.834 -25.8333 96 -25.6277 96H16.6277C16.8333 96 17 95.834 17 95.6291V68.3709C17 68.166 16.8333 68 16.6277 68Z" fill="white"/>
<path d="M9.18182 79.8675C11.1351 79.8675 12.7186 78.2901 12.7186 76.3443C12.7186 74.3985 11.1351 72.8212 9.18182 72.8212C7.2285 72.8212 5.64502 74.3985 5.64502 76.3443C5.64502 78.2901 7.2285 79.8675 9.18182 79.8675Z" fill="#BCBCBC"/>
<path d="M4.06276 80.9801H-13.2489C-13.5059 80.9801 -13.7143 81.1877 -13.7143 81.4437C-13.7143 81.6997 -13.5059 81.9073 -13.2489 81.9073H4.06276C4.31978 81.9073 4.52813 81.6997 4.52813 81.4437C4.52813 81.1877 4.31978 80.9801 4.06276 80.9801Z" fill="#B8B8B8"/>
<path d="M2.01513 83.2053H-11.2013C-11.4583 83.2053 -11.6667 83.4129 -11.6667 83.6689C-11.6667 83.9249 -11.4583 84.1325 -11.2013 84.1325H2.01513C2.27215 84.1325 2.4805 83.9249 2.4805 83.6689C2.4805 83.4129 2.27215 83.2053 2.01513 83.2053Z" fill="#B8B8B8"/>
</g>
</g>
<rect x="-25.5" y="68.5" width="42" height="27" stroke="#D9D9D9"/>
<g clip-path="url(#clip6_7_34)">
<mask id="mask5_7_34" style="mask-type:luminance" maskUnits="userSpaceOnUse" x="209" y="68" width="43" height="28">
<path d="M252 68H209V96H252V68Z" fill="white"/>
</mask>
<g mask="url(#mask5_7_34)">
<path d="M251.628 68H209.372C209.167 68 209 68.166 209 68.3709V95.6291C209 95.834 209.167 96 209.372 96H251.628C251.833 96 252 95.834 252 95.6291V68.3709C252 68.166 251.833 68 251.628 68Z" fill="white"/>
<path d="M225.099 95.2632L215.274 82.7056L198.233 95.9353L208.058 108.493L225.099 95.2632Z" fill="#BCBCBC"/>
<path d="M234.856 97.7335L225.031 85.1759L207.991 98.4056L217.815 110.963L234.856 97.7335Z" fill="#BCBCBC"/>
<path d="M239.063 80.9801H221.751C221.494 80.9801 221.286 81.1877 221.286 81.4437C221.286 81.6997 221.494 81.9073 221.751 81.9073H239.063C239.32 81.9073 239.528 81.6997 239.528 81.4437C239.528 81.1877 239.32 80.9801 239.063 80.9801Z" fill="#B8B8B8"/>
<path d="M237.015 83.2053H223.799C223.542 83.2053 223.333 83.4129 223.333 83.6689C223.333 83.9249 223.542 84.1325 223.799 84.1325H237.015C237.272 84.1325 237.481 83.9249 237.481 83.6689C237.481 83.4129 237.272 83.2053 237.015 83.2053Z" fill="#B8B8B8"/>
</g>
</g>
<rect x="209.5" y="68.5" width="42" height="27" stroke="#D9D9D9"/>
<line x1="73" y1="34.5" x2="159" y2="34.5" stroke="white" stroke-width="5"/>
<line x1="82" y1="119.5" x2="149" y2="119.5" stroke="white" stroke-width="3"/>
<rect x="96" y="127" width="34" height="10" fill="white"/>
</g>
<defs>
<clipPath id="clip0_7_34">
<rect width="231" height="151" fill="white"/>
</clipPath>
<clipPath id="clip1_7_34">
<rect x="21" y="68" width="43" height="28" fill="white"/>
</clipPath>
<clipPath id="clip2_7_34">
<rect x="68" y="68" width="43" height="28" fill="white"/>
</clipPath>
<clipPath id="clip3_7_34">
<rect x="115" y="68" width="43" height="28" fill="white"/>
</clipPath>
<clipPath id="clip4_7_34">
<rect x="162" y="68" width="43" height="28" fill="white"/>
</clipPath>
<clipPath id="clip5_7_34">
<rect x="-26" y="68" width="43" height="28" fill="white"/>
</clipPath>
<clipPath id="clip6_7_34">
<rect x="209" y="68" width="43" height="28" fill="white"/>
</clipPath>
</defs>
</svg>
