<svg width="231" height="151" viewBox="0 0 231 151" fill="none" xmlns="http://www.w3.org/2000/svg">
<rect width="231" height="151" fill="#D9D9D9"/>
<g clip-path="url(#clip0_24_2)">
<mask id="mask0_24_2" style="mask-type:luminance" maskUnits="userSpaceOnUse" x="19" y="40" width="38" height="25">
<path d="M57 40H19V65H57V40Z" fill="white"/>
</mask>
<g mask="url(#mask0_24_2)">
<path d="M56.671 40H19.329C19.1473 40 19 40.1483 19 40.3311V64.6689C19 64.8517 19.1473 65 19.329 65H56.671C56.8527 65 57 64.8517 57 64.6689V40.3311C57 40.1483 56.8527 40 56.671 40Z" fill="white"/>
<path d="M33.2268 64.3421L24.5446 53.13L9.48528 64.9422L18.1676 76.1543L33.2268 64.3421Z" fill="#BCBCBC"/>
<path d="M41.8495 66.5478L33.1672 55.3356L18.108 67.1479L26.7902 78.36L41.8495 66.5478Z" fill="#BCBCBC"/>
<path d="M50.0909 50.596C51.8171 50.596 53.2164 49.1876 53.2164 47.4503C53.2164 45.713 51.8171 44.3046 50.0909 44.3046C48.3647 44.3046 46.9653 45.713 46.9653 47.4503C46.9653 49.1876 48.3647 50.596 50.0909 50.596Z" fill="#BCBCBC"/>
<path d="M45.5671 51.5894H30.2684C30.0412 51.5894 29.8571 51.7747 29.8571 52.0033C29.8571 52.2319 30.0412 52.4172 30.2684 52.4172H45.5671C45.7942 52.4172 45.9783 52.2319 45.9783 52.0033C45.9783 51.7747 45.7942 51.5894 45.5671 51.5894Z" fill="#B8B8B8"/>
<path d="M43.7576 53.5762H32.0779C31.8508 53.5762 31.6667 53.7615 31.6667 53.9901C31.6667 54.2187 31.8508 54.404 32.0779 54.404H43.7576C43.9847 54.404 44.1689 54.2187 44.1689 53.9901C44.1689 53.7615 43.9847 53.5762 43.7576 53.5762Z" fill="#B8B8B8"/>
</g>
</g>
<rect x="19.5" y="40.5" width="37" height="24" stroke="#D9D9D9"/>
<g clip-path="url(#clip1_24_2)">
<mask id="mask1_24_2" style="mask-type:luminance" maskUnits="userSpaceOnUse" x="19" y="80" width="38" height="25">
<path d="M57 80H19V105H57V80Z" fill="white"/>
</mask>
<g mask="url(#mask1_24_2)">
<path d="M56.671 80H19.329C19.1473 80 19 80.1483 19 80.3311V104.669C19 104.852 19.1473 105 19.329 105H56.671C56.8527 105 57 104.852 57 104.669V80.3311C57 80.1483 56.8527 80 56.671 80Z" fill="white"/>
<path d="M33.2268 104.342L24.5446 93.13L9.48528 104.942L18.1676 116.154L33.2268 104.342Z" fill="#BCBCBC"/>
<path d="M41.8495 106.548L33.1672 95.3356L18.108 107.148L26.7902 118.36L41.8495 106.548Z" fill="#BCBCBC"/>
<path d="M50.0909 90.596C51.8171 90.596 53.2164 89.1876 53.2164 87.4503C53.2164 85.713 51.8171 84.3046 50.0909 84.3046C48.3647 84.3046 46.9653 85.713 46.9653 87.4503C46.9653 89.1876 48.3647 90.596 50.0909 90.596Z" fill="#BCBCBC"/>
<path d="M45.5671 91.5894H30.2684C30.0412 91.5894 29.8571 91.7747 29.8571 92.0033C29.8571 92.2319 30.0412 92.4172 30.2684 92.4172H45.5671C45.7942 92.4172 45.9783 92.2319 45.9783 92.0033C45.9783 91.7747 45.7942 91.5894 45.5671 91.5894Z" fill="#B8B8B8"/>
<path d="M43.7576 93.5762H32.0779C31.8508 93.5762 31.6667 93.7615 31.6667 93.9901C31.6667 94.2187 31.8508 94.404 32.0779 94.404H43.7576C43.9847 94.404 44.1689 94.2187 44.1689 93.9901C44.1689 93.7615 43.9847 93.5762 43.7576 93.5762Z" fill="#B8B8B8"/>
</g>
</g>
<rect x="19.5" y="80.5" width="37" height="24" stroke="#D9D9D9"/>
<g clip-path="url(#clip2_24_2)">
<mask id="mask2_24_2" style="mask-type:luminance" maskUnits="userSpaceOnUse" x="19" y="107" width="38" height="25">
<path d="M57 107H19V132H57V107Z" fill="white"/>
</mask>
<g mask="url(#mask2_24_2)">
<path d="M56.671 107H19.329C19.1473 107 19 107.148 19 107.331V131.669C19 131.852 19.1473 132 19.329 132H56.671C56.8527 132 57 131.852 57 131.669V107.331C57 107.148 56.8527 107 56.671 107Z" fill="white"/>
<path d="M33.2268 131.342L24.5446 120.13L9.48528 131.942L18.1676 143.154L33.2268 131.342Z" fill="#BCBCBC"/>
<path d="M41.8495 133.548L33.1672 122.336L18.108 134.148L26.7902 145.36L41.8495 133.548Z" fill="#BCBCBC"/>
<path d="M50.0909 117.596C51.8171 117.596 53.2164 116.188 53.2164 114.45C53.2164 112.713 51.8171 111.305 50.0909 111.305C48.3647 111.305 46.9653 112.713 46.9653 114.45C46.9653 116.188 48.3647 117.596 50.0909 117.596Z" fill="#BCBCBC"/>
<path d="M45.5671 118.589H30.2684C30.0412 118.589 29.8571 118.775 29.8571 119.003C29.8571 119.232 30.0412 119.417 30.2684 119.417H45.5671C45.7942 119.417 45.9783 119.232 45.9783 119.003C45.9783 118.775 45.7942 118.589 45.5671 118.589Z" fill="#B8B8B8"/>
<path d="M43.7576 120.576H32.0779C31.8508 120.576 31.6667 120.761 31.6667 120.99C31.6667 121.219 31.8508 121.404 32.0779 121.404H43.7576C43.9847 121.404 44.1689 121.219 44.1689 120.99C44.1689 120.761 43.9847 120.576 43.7576 120.576Z" fill="#B8B8B8"/>
</g>
</g>
<rect x="19.5" y="107.5" width="37" height="24" stroke="#D9D9D9"/>
<g clip-path="url(#clip3_24_2)">
<mask id="mask3_24_2" style="mask-type:luminance" maskUnits="userSpaceOnUse" x="71" y="40" width="38" height="25">
<path d="M109 40H71V65H109V40Z" fill="white"/>
</mask>
<g mask="url(#mask3_24_2)">
<path d="M108.671 40H71.329C71.1473 40 71 40.1483 71 40.3311V64.6689C71 64.8517 71.1473 65 71.329 65H108.671C108.853 65 109 64.8517 109 64.6689V40.3311C109 40.1483 108.853 40 108.671 40Z" fill="white"/>
<path d="M85.2268 64.3421L76.5446 53.13L61.4853 64.9422L70.1676 76.1543L85.2268 64.3421Z" fill="#BCBCBC"/>
<path d="M93.8495 66.5478L85.1672 55.3356L70.108 67.1479L78.7902 78.36L93.8495 66.5478Z" fill="#BCBCBC"/>
<path d="M102.091 50.596C103.817 50.596 105.216 49.1876 105.216 47.4503C105.216 45.713 103.817 44.3046 102.091 44.3046C100.365 44.3046 98.9653 45.713 98.9653 47.4503C98.9653 49.1876 100.365 50.596 102.091 50.596Z" fill="#BCBCBC"/>
<path d="M97.5671 51.5894H82.2684C82.0412 51.5894 81.8571 51.7747 81.8571 52.0033C81.8571 52.2319 82.0412 52.4172 82.2684 52.4172H97.5671C97.7942 52.4172 97.9783 52.2319 97.9783 52.0033C97.9783 51.7747 97.7942 51.5894 97.5671 51.5894Z" fill="#B8B8B8"/>
<path d="M95.7576 53.5762H84.0779C83.8508 53.5762 83.6667 53.7615 83.6667 53.9901C83.6667 54.2187 83.8508 54.404 84.0779 54.404H95.7576C95.9847 54.404 96.1689 54.2187 96.1689 53.9901C96.1689 53.7615 95.9847 53.5762 95.7576 53.5762Z" fill="#B8B8B8"/>
</g>
</g>
<rect x="71.5" y="40.5" width="37" height="24" stroke="#D9D9D9"/>
<g clip-path="url(#clip4_24_2)">
<mask id="mask4_24_2" style="mask-type:luminance" maskUnits="userSpaceOnUse" x="71" y="73" width="38" height="25">
<path d="M109 73H71V98H109V73Z" fill="white"/>
</mask>
<g mask="url(#mask4_24_2)">
<path d="M108.671 73H71.329C71.1473 73 71 73.1483 71 73.3311V97.6689C71 97.8517 71.1473 98 71.329 98H108.671C108.853 98 109 97.8517 109 97.6689V73.3311C109 73.1483 108.853 73 108.671 73Z" fill="white"/>
<path d="M85.2268 97.3422L76.5446 86.13L61.4853 97.9422L70.1676 109.154L85.2268 97.3422Z" fill="#BCBCBC"/>
<path d="M93.8495 99.5478L85.1672 88.3356L70.108 100.148L78.7902 111.36L93.8495 99.5478Z" fill="#BCBCBC"/>
<path d="M102.091 83.596C103.817 83.596 105.216 82.1876 105.216 80.4503C105.216 78.713 103.817 77.3046 102.091 77.3046C100.365 77.3046 98.9653 78.713 98.9653 80.4503C98.9653 82.1876 100.365 83.596 102.091 83.596Z" fill="#BCBCBC"/>
<path d="M97.5671 84.5894H82.2684C82.0412 84.5894 81.8571 84.7747 81.8571 85.0033C81.8571 85.2319 82.0412 85.4172 82.2684 85.4172H97.5671C97.7942 85.4172 97.9783 85.2319 97.9783 85.0033C97.9783 84.7747 97.7942 84.5894 97.5671 84.5894Z" fill="#B8B8B8"/>
<path d="M95.7576 86.5762H84.0779C83.8508 86.5762 83.6667 86.7615 83.6667 86.9901C83.6667 87.2187 83.8508 87.404 84.0779 87.404H95.7576C95.9847 87.404 96.1689 87.2187 96.1689 86.9901C96.1689 86.7615 95.9847 86.5762 95.7576 86.5762Z" fill="#B8B8B8"/>
</g>
</g>
<rect x="71.5" y="73.5" width="37" height="24" stroke="#D9D9D9"/>
<g clip-path="url(#clip5_24_2)">
<mask id="mask5_24_2" style="mask-type:luminance" maskUnits="userSpaceOnUse" x="71" y="107" width="38" height="25">
<path d="M109 107H71V132H109V107Z" fill="white"/>
</mask>
<g mask="url(#mask5_24_2)">
<path d="M108.671 107H71.329C71.1473 107 71 107.148 71 107.331V131.669C71 131.852 71.1473 132 71.329 132H108.671C108.853 132 109 131.852 109 131.669V107.331C109 107.148 108.853 107 108.671 107Z" fill="white"/>
<path d="M85.2268 131.342L76.5446 120.13L61.4853 131.942L70.1676 143.154L85.2268 131.342Z" fill="#BCBCBC"/>
<path d="M93.8495 133.548L85.1672 122.336L70.108 134.148L78.7902 145.36L93.8495 133.548Z" fill="#BCBCBC"/>
<path d="M102.091 117.596C103.817 117.596 105.216 116.188 105.216 114.45C105.216 112.713 103.817 111.305 102.091 111.305C100.365 111.305 98.9653 112.713 98.9653 114.45C98.9653 116.188 100.365 117.596 102.091 117.596Z" fill="#BCBCBC"/>
<path d="M97.5671 118.589H82.2684C82.0412 118.589 81.8571 118.775 81.8571 119.003C81.8571 119.232 82.0412 119.417 82.2684 119.417H97.5671C97.7942 119.417 97.9783 119.232 97.9783 119.003C97.9783 118.775 97.7942 118.589 97.5671 118.589Z" fill="#B8B8B8"/>
<path d="M95.7576 120.576H84.0779C83.8508 120.576 83.6667 120.761 83.6667 120.99C83.6667 121.219 83.8508 121.404 84.0779 121.404H95.7576C95.9847 121.404 96.1689 121.219 96.1689 120.99C96.1689 120.761 95.9847 120.576 95.7576 120.576Z" fill="#B8B8B8"/>
</g>
</g>
<rect x="71.5" y="107.5" width="37" height="24" stroke="#D9D9D9"/>
<g clip-path="url(#clip6_24_2)">
<mask id="mask6_24_2" style="mask-type:luminance" maskUnits="userSpaceOnUse" x="123" y="40" width="38" height="25">
<path d="M161 40H123V65H161V40Z" fill="white"/>
</mask>
<g mask="url(#mask6_24_2)">
<path d="M160.671 40H123.329C123.147 40 123 40.1483 123 40.3311V64.6689C123 64.8517 123.147 65 123.329 65H160.671C160.853 65 161 64.8517 161 64.6689V40.3311C161 40.1483 160.853 40 160.671 40Z" fill="white"/>
<path d="M137.227 64.3421L128.545 53.13L113.485 64.9422L122.168 76.1543L137.227 64.3421Z" fill="#BCBCBC"/>
<path d="M145.85 66.5478L137.167 55.3356L122.108 67.1479L130.79 78.36L145.85 66.5478Z" fill="#BCBCBC"/>
<path d="M154.091 50.596C155.817 50.596 157.216 49.1876 157.216 47.4503C157.216 45.713 155.817 44.3046 154.091 44.3046C152.365 44.3046 150.965 45.713 150.965 47.4503C150.965 49.1876 152.365 50.596 154.091 50.596Z" fill="#BCBCBC"/>
<path d="M149.567 51.5894H134.268C134.041 51.5894 133.857 51.7747 133.857 52.0033C133.857 52.2319 134.041 52.4172 134.268 52.4172H149.567C149.794 52.4172 149.978 52.2319 149.978 52.0033C149.978 51.7747 149.794 51.5894 149.567 51.5894Z" fill="#B8B8B8"/>
<path d="M147.758 53.5762H136.078C135.851 53.5762 135.667 53.7615 135.667 53.9901C135.667 54.2187 135.851 54.404 136.078 54.404H147.758C147.985 54.404 148.169 54.2187 148.169 53.9901C148.169 53.7615 147.985 53.5762 147.758 53.5762Z" fill="#B8B8B8"/>
</g>
</g>
<rect x="123.5" y="40.5" width="37" height="24" stroke="#D9D9D9"/>
<g clip-path="url(#clip7_24_2)">
<mask id="mask7_24_2" style="mask-type:luminance" maskUnits="userSpaceOnUse" x="123" y="73" width="38" height="25">
<path d="M161 73H123V98H161V73Z" fill="white"/>
</mask>
<g mask="url(#mask7_24_2)">
<path d="M160.671 73H123.329C123.147 73 123 73.1483 123 73.3311V97.6689C123 97.8517 123.147 98 123.329 98H160.671C160.853 98 161 97.8517 161 97.6689V73.3311C161 73.1483 160.853 73 160.671 73Z" fill="white"/>
<path d="M137.227 97.3422L128.545 86.13L113.485 97.9422L122.168 109.154L137.227 97.3422Z" fill="#BCBCBC"/>
<path d="M145.85 99.5478L137.167 88.3356L122.108 100.148L130.79 111.36L145.85 99.5478Z" fill="#BCBCBC"/>
<path d="M154.091 83.596C155.817 83.596 157.216 82.1876 157.216 80.4503C157.216 78.713 155.817 77.3046 154.091 77.3046C152.365 77.3046 150.965 78.713 150.965 80.4503C150.965 82.1876 152.365 83.596 154.091 83.596Z" fill="#BCBCBC"/>
<path d="M149.567 84.5894H134.268C134.041 84.5894 133.857 84.7747 133.857 85.0033C133.857 85.2319 134.041 85.4172 134.268 85.4172H149.567C149.794 85.4172 149.978 85.2319 149.978 85.0033C149.978 84.7747 149.794 84.5894 149.567 84.5894Z" fill="#B8B8B8"/>
<path d="M147.758 86.5762H136.078C135.851 86.5762 135.667 86.7615 135.667 86.9901C135.667 87.2187 135.851 87.404 136.078 87.404H147.758C147.985 87.404 148.169 87.2187 148.169 86.9901C148.169 86.7615 147.985 86.5762 147.758 86.5762Z" fill="#B8B8B8"/>
</g>
</g>
<rect x="123.5" y="73.5" width="37" height="24" stroke="#D9D9D9"/>
<g clip-path="url(#clip8_24_2)">
<mask id="mask8_24_2" style="mask-type:luminance" maskUnits="userSpaceOnUse" x="175" y="40" width="38" height="25">
<path d="M213 40H175V65H213V40Z" fill="white"/>
</mask>
<g mask="url(#mask8_24_2)">
<path d="M212.671 40H175.329C175.147 40 175 40.1483 175 40.3311V64.6689C175 64.8517 175.147 65 175.329 65H212.671C212.853 65 213 64.8517 213 64.6689V40.3311C213 40.1483 212.853 40 212.671 40Z" fill="white"/>
<path d="M189.227 64.3421L180.545 53.13L165.485 64.9422L174.168 76.1543L189.227 64.3421Z" fill="#BCBCBC"/>
<path d="M197.85 66.5478L189.167 55.3356L174.108 67.1479L182.79 78.36L197.85 66.5478Z" fill="#BCBCBC"/>
<path d="M206.091 50.596C207.817 50.596 209.217 49.1876 209.217 47.4503C209.217 45.713 207.817 44.3046 206.091 44.3046C204.365 44.3046 202.965 45.713 202.965 47.4503C202.965 49.1876 204.365 50.596 206.091 50.596Z" fill="#BCBCBC"/>
<path d="M201.567 51.5894H186.268C186.041 51.5894 185.857 51.7747 185.857 52.0033C185.857 52.2319 186.041 52.4172 186.268 52.4172H201.567C201.794 52.4172 201.978 52.2319 201.978 52.0033C201.978 51.7747 201.794 51.5894 201.567 51.5894Z" fill="#B8B8B8"/>
<path d="M199.758 53.5762H188.078C187.851 53.5762 187.667 53.7615 187.667 53.9901C187.667 54.2187 187.851 54.404 188.078 54.404H199.758C199.985 54.404 200.169 54.2187 200.169 53.9901C200.169 53.7615 199.985 53.5762 199.758 53.5762Z" fill="#B8B8B8"/>
</g>
</g>
<rect x="175.5" y="40.5" width="37" height="24" stroke="#D9D9D9"/>
<g clip-path="url(#clip9_24_2)">
<mask id="mask9_24_2" style="mask-type:luminance" maskUnits="userSpaceOnUse" x="175" y="73" width="38" height="25">
<path d="M213 73H175V98H213V73Z" fill="white"/>
</mask>
<g mask="url(#mask9_24_2)">
<path d="M212.671 73H175.329C175.147 73 175 73.1483 175 73.3311V97.6689C175 97.8517 175.147 98 175.329 98H212.671C212.853 98 213 97.8517 213 97.6689V73.3311C213 73.1483 212.853 73 212.671 73Z" fill="white"/>
<path d="M189.227 97.3422L180.545 86.13L165.485 97.9422L174.168 109.154L189.227 97.3422Z" fill="#BCBCBC"/>
<path d="M197.85 99.5478L189.167 88.3356L174.108 100.148L182.79 111.36L197.85 99.5478Z" fill="#BCBCBC"/>
<path d="M206.091 83.596C207.817 83.596 209.217 82.1876 209.217 80.4503C209.217 78.713 207.817 77.3046 206.091 77.3046C204.365 77.3046 202.965 78.713 202.965 80.4503C202.965 82.1876 204.365 83.596 206.091 83.596Z" fill="#BCBCBC"/>
<path d="M201.567 84.5894H186.268C186.041 84.5894 185.857 84.7747 185.857 85.0033C185.857 85.2319 186.041 85.4172 186.268 85.4172H201.567C201.794 85.4172 201.978 85.2319 201.978 85.0033C201.978 84.7747 201.794 84.5894 201.567 84.5894Z" fill="#B8B8B8"/>
<path d="M199.758 86.5762H188.078C187.851 86.5762 187.667 86.7615 187.667 86.9901C187.667 87.2187 187.851 87.404 188.078 87.404H199.758C199.985 87.404 200.169 87.2187 200.169 86.9901C200.169 86.7615 199.985 86.5762 199.758 86.5762Z" fill="#B8B8B8"/>
</g>
</g>
<rect x="175.5" y="73.5" width="37" height="24" stroke="#D9D9D9"/>
<line x1="73" y1="16.5" x2="159" y2="16.5" stroke="white" stroke-width="5"/>
<line x1="82" y1="29.5" x2="149" y2="29.5" stroke="white" stroke-width="3"/>
<rect x="123" y="107" width="90" height="25" rx="4" fill="white"/>
<rect width="51" height="3" transform="translate(127 113)" fill="#D9D9D9"/>
<rect width="51" height="3" transform="translate(127 118)" fill="#D9D9D9"/>
<rect width="51" height="3" transform="translate(127 123)" fill="#D9D9D9"/>
<rect x="183" y="115" width="27" height="10" rx="2" fill="#D9D9D9"/>
<defs>
<clipPath id="clip0_24_2">
<rect x="19" y="40" width="38" height="25" fill="white"/>
</clipPath>
<clipPath id="clip1_24_2">
<rect x="19" y="80" width="38" height="25" fill="white"/>
</clipPath>
<clipPath id="clip2_24_2">
<rect x="19" y="107" width="38" height="25" fill="white"/>
</clipPath>
<clipPath id="clip3_24_2">
<rect x="71" y="40" width="38" height="25" fill="white"/>
</clipPath>
<clipPath id="clip4_24_2">
<rect x="71" y="73" width="38" height="25" fill="white"/>
</clipPath>
<clipPath id="clip5_24_2">
<rect x="71" y="107" width="38" height="25" fill="white"/>
</clipPath>
<clipPath id="clip6_24_2">
<rect x="123" y="40" width="38" height="25" fill="white"/>
</clipPath>
<clipPath id="clip7_24_2">
<rect x="123" y="73" width="38" height="25" fill="white"/>
</clipPath>
<clipPath id="clip8_24_2">
<rect x="175" y="40" width="38" height="25" fill="white"/>
</clipPath>
<clipPath id="clip9_24_2">
<rect x="175" y="73" width="38" height="25" fill="white"/>
</clipPath>
</defs>
</svg>
