<svg width="39" height="40" viewBox="0 0 39 40" fill="none" xmlns="http://www.w3.org/2000/svg">
<rect width="38.3412" height="40" rx="8.75" fill="black"/>
<rect width="38.3412" height="40" rx="8.75" stroke="white"/>
<path fill-rule="evenodd" clip-rule="evenodd" d="M28.3123 20.3468L27.7095 21.7853C25.6535 25.7672 22.5158 30.1292 19.5893 33.4359C19.2506 33.8175 18.9684 33.8778 18.6074 33.4699C17.078 31.7477 15.5958 29.9895 14.2398 28.1358C14.1268 27.9813 14.1288 27.7713 14.2435 27.6182L19.2674 20.9097C19.4165 20.7106 19.7013 20.6757 19.894 20.8328L21.3481 22.018C21.6192 22.239 22.0147 22.0582 22.038 21.7026L22.504 14.6041C22.5246 14.2893 22.233 14.0493 21.9444 14.1435L15.3919 16.2809C15.0639 16.3879 14.9889 16.8347 15.2615 17.0569L16.7604 18.2786C16.9423 18.4268 16.9748 18.6922 16.8342 18.88L12.5785 24.5626C12.3928 24.8105 12.0155 24.7922 11.8592 24.5247C11.3419 23.6394 10.859 22.728 10.4177 21.7853C8.947 18.6456 8.56968 15.464 10.0478 12.1976C11.823 8.27444 15.7061 5.95049 19.9666 6.28115C23.9924 6.59018 27.571 9.66045 28.6867 13.7706C29.2853 15.9461 29.2036 18.0847 28.3123 20.3468Z" fill="white"/>
</svg>
