<svg width="124" height="40" viewBox="0 0 124 40" fill="none" xmlns="http://www.w3.org/2000/svg">
<rect width="124" height="40" fill="#1A1A1A"/>
<path d="M56.2176 31.8899C54.6985 31.8899 53.357 31.6018 52.193 31.0255C51.0291 30.4698 50.1018 29.6774 49.4113 28.6483L51.8675 26.0858C52.4199 26.765 53.0315 27.2796 53.7023 27.6295C54.3927 28 55.2213 28.1852 56.188 28.1852C57.3915 28.1852 58.3384 27.8662 59.0289 27.2281C59.7391 26.5901 60.0942 25.7051 60.0942 24.5731V20.8375L60.7453 17.5649L60.1238 14.2924V10.3716H63.9709V24.5113C63.9709 25.9932 63.6355 27.2796 62.9647 28.3704C62.3137 29.4818 61.4062 30.3463 60.2422 30.9637C59.0782 31.5812 57.7367 31.8899 56.2176 31.8899ZM56.0401 24.8818C54.7577 24.8818 53.6036 24.5628 52.5777 23.9247C51.5519 23.2661 50.743 22.3708 50.1512 21.2388C49.579 20.1068 49.293 18.841 49.293 17.4415C49.293 16.0419 49.579 14.7864 50.1512 13.675C50.743 12.5636 51.5519 11.6888 52.5777 11.0508C53.6036 10.3922 54.7577 10.0629 56.0401 10.0629C57.1054 10.0629 58.0425 10.279 58.8514 10.7112C59.6799 11.1434 60.331 11.7403 60.8045 12.5018C61.2779 13.2428 61.5344 14.1175 61.5739 15.126V19.8187C61.5344 20.8066 61.2681 21.6916 60.7749 22.4737C60.3014 23.2353 59.6504 23.8321 58.8218 24.2643C58.0129 24.676 57.0857 24.8818 56.0401 24.8818ZM56.8095 21.2079C57.5197 21.2079 58.1313 21.0536 58.6442 20.7448C59.1769 20.4155 59.5912 19.973 59.8871 19.4173C60.183 18.841 60.331 18.1927 60.331 17.4723C60.331 16.7314 60.183 16.0831 59.8871 15.5273C59.5912 14.9716 59.1769 14.5394 58.6442 14.2307C58.1313 13.9014 57.5197 13.7367 56.8095 13.7367C56.0993 13.7367 55.4778 13.9014 54.9451 14.2307C54.4125 14.5394 53.9982 14.9819 53.7023 15.5582C53.4063 16.1139 53.2584 16.752 53.2584 17.4723C53.2584 18.1721 53.4063 18.8101 53.7023 19.3864C53.9982 19.9422 54.4125 20.3847 54.9451 20.714C55.4778 21.0433 56.0993 21.2079 56.8095 21.2079Z" fill="white"/>
<path d="M67.377 25.2831V10.3716H71.2536V25.2831H67.377ZM71.2536 17.0401L69.7444 15.9904C69.922 14.1586 70.4349 12.7179 71.2832 11.6682C72.1315 10.598 73.3547 10.0629 74.9527 10.0629C75.6432 10.0629 76.2646 10.1863 76.817 10.4333C77.3694 10.6597 77.8725 11.0405 78.3263 11.5756L75.8997 14.4777C75.6827 14.2307 75.4163 14.0454 75.1007 13.922C74.8047 13.7985 74.4595 13.7367 74.0649 13.7367C73.2363 13.7367 72.5557 14.0146 72.023 14.5703C71.5101 15.1054 71.2536 15.9287 71.2536 17.0401Z" fill="white"/>
<path d="M86.1193 25.5919C84.6199 25.5919 83.2882 25.2626 82.1243 24.6039C80.9603 23.9247 80.0331 22.9986 79.3426 21.8254C78.6718 20.6522 78.3364 19.3144 78.3364 17.8119C78.3364 16.33 78.6619 15.0128 79.313 13.8602C79.9837 12.687 80.8912 11.7609 82.0355 11.0817C83.1797 10.3819 84.4522 10.032 85.8529 10.032C87.2339 10.032 88.4472 10.3613 89.4928 11.0199C90.5581 11.6579 91.3867 12.543 91.9786 13.675C92.5902 14.7864 92.896 16.0522 92.896 17.4723C92.896 17.7399 92.8762 18.0177 92.8368 18.3059C92.817 18.5735 92.7677 18.8822 92.6888 19.2321L80.6742 19.2629V16.2374L90.8837 16.2065L89.3153 17.4723C89.2758 16.5873 89.118 15.8464 88.8418 15.2495C88.5853 14.6526 88.2006 14.1998 87.6877 13.8911C87.1945 13.5618 86.5829 13.3971 85.8529 13.3971C85.0835 13.3971 84.4128 13.5824 83.8406 13.9528C83.2685 14.3027 82.8246 14.807 82.509 15.4656C82.213 16.1036 82.0651 16.8652 82.0651 17.7502C82.0651 18.6558 82.2229 19.4482 82.5386 20.1274C82.874 20.786 83.3474 21.3006 83.959 21.671C84.5706 22.0209 85.2808 22.1959 86.0897 22.1959C86.8196 22.1959 87.4805 22.0724 88.0724 21.8254C88.6642 21.5578 89.1772 21.1668 89.6112 20.6522L91.8898 23.0294C91.1993 23.8733 90.351 24.5113 89.3448 24.9435C88.3584 25.3758 87.2832 25.5919 86.1193 25.5919Z" fill="white"/>
<path d="M103.855 25.2831L100.096 19.2321L99.2974 18.6146L93.734 10.3716H98.3209L101.783 15.8361L102.523 16.4227L108.412 25.2831H103.855ZM93.4381 25.2831L99.2678 16.7623L101.487 19.5099L97.8178 25.2831H93.4381ZM102.671 18.5837L100.392 15.8669L103.795 10.3716H108.146L102.671 18.5837Z" fill="white"/>
<path d="M116.01 25.5919C114.708 25.5919 113.534 25.2523 112.488 24.5731C111.442 23.8939 110.624 22.9677 110.032 21.7945C109.44 20.6214 109.144 19.3041 109.144 17.8428C109.144 16.3609 109.44 15.0334 110.032 13.8602C110.624 12.687 111.442 11.7609 112.488 11.0817C113.534 10.4025 114.708 10.0629 116.01 10.0629C117.035 10.0629 117.953 10.279 118.762 10.7112C119.571 11.1434 120.212 11.7506 120.685 12.5327C121.178 13.2942 121.445 14.1586 121.484 15.126V20.4979C121.445 21.4858 121.178 22.3605 120.685 23.1221C120.212 23.8836 119.571 24.4907 118.762 24.9435C117.953 25.3758 117.035 25.5919 116.01 25.5919ZM116.72 21.8563C117.805 21.8563 118.683 21.4858 119.354 20.7448C120.024 19.9833 120.36 19.0057 120.36 17.8119C120.36 17.0298 120.202 16.3403 119.886 15.7435C119.59 15.126 119.166 14.6526 118.614 14.3233C118.081 13.9734 117.45 13.7985 116.72 13.7985C116.01 13.7985 115.378 13.9734 114.826 14.3233C114.293 14.6526 113.869 15.126 113.553 15.7435C113.257 16.3403 113.11 17.0298 113.11 17.8119C113.11 18.6146 113.257 19.3247 113.553 19.9422C113.869 20.539 114.293 21.0124 114.826 21.3623C115.378 21.6916 116.01 21.8563 116.72 21.8563ZM120.153 25.2831V21.2697L120.774 17.6267L120.153 14.0454V10.3716H124V25.2831H120.153Z" fill="white"/>
<rect width="38.3412" height="40" rx="8.75" fill="white"/>
<rect width="38.3412" height="40" rx="8.75" stroke="black"/>
<path fill-rule="evenodd" clip-rule="evenodd" d="M28.3123 20.3468L27.7095 21.7853C25.6535 25.7672 22.5158 30.1292 19.5893 33.4359C19.2506 33.8175 18.9684 33.8778 18.6074 33.4699C17.078 31.7477 15.5958 29.9895 14.2398 28.1358C14.1268 27.9813 14.1288 27.7713 14.2435 27.6182L19.2674 20.9097C19.4165 20.7106 19.7013 20.6757 19.894 20.8328L21.3481 22.018C21.6192 22.239 22.0147 22.0582 22.038 21.7026L22.504 14.6041C22.5246 14.2893 22.233 14.0493 21.9444 14.1435L15.3919 16.2809C15.0639 16.3879 14.9889 16.8347 15.2615 17.0569L16.7604 18.2786C16.9423 18.4268 16.9748 18.6922 16.8342 18.88L12.5785 24.5626C12.3928 24.8105 12.0155 24.7922 11.8592 24.5247C11.3419 23.6394 10.859 22.728 10.4177 21.7853C8.947 18.6456 8.56968 15.464 10.0478 12.1976C11.823 8.27444 15.7061 5.95049 19.9666 6.28115C23.9924 6.59018 27.571 9.66045 28.6867 13.7706C29.2853 15.9461 29.2036 18.0847 28.3123 20.3468Z" fill="black"/>
</svg>
