<svg width="119" height="25" viewBox="0 0 119 25" fill="none" xmlns="http://www.w3.org/2000/svg">
<path d="M28.8352 20.7296L28.1293 18.5727L27.4234 20.7296H25.1685L27.0117 22.0433L26.3058 24.2002L28.1293 22.8669L29.9529 24.2002L29.247 22.0433L31.0705 20.71L28.8352 20.7296ZM26.698 7.10216L31.2862 3.04333L28.0705 0.200195L20.3842 7.00412V12.6708L26.698 7.10216ZM31.2666 12.2394L28.0705 9.39627L20.3842 16.2002V21.8669L26.698 16.2982L31.2666 12.2394ZM31.6391 12.5727L28.4234 15.4159L35.8352 21.9649V16.2982C35.8548 16.2982 31.6391 12.5727 31.6391 12.5727ZM28.4431 6.20019L35.8548 12.7296V7.08255L31.6587 3.35706L28.4431 6.20019ZM4.87442 14.5727H11.7568V19.4943H4.87442V14.5727ZM4.87442 5.4747H11.7568V10.3963H4.87442V5.4747ZM13.0705 23.6904L16.1097 20.6512V14.4943L13.8548 12.4747L16.1293 10.4943V4.31784L13.0705 1.25902H0.521484V23.71L13.0705 23.6904ZM51.1882 10.9453H44.5607V5.45509H51.2078V10.9453H51.1882ZM55.5607 11.8276V4.31784L52.4627 1.27863H40.1881V23.71H44.5411V15.1414H48.4627L51.247 23.6904H55.6391L52.5999 14.7884L55.5607 11.8276ZM70.796 10.9453H64.1489V5.45509H70.796V10.9453ZM75.1489 11.8276V4.31784L72.0509 1.27863H59.7764V23.71H64.1293V15.1414H68.0509L70.8352 23.6904H75.2274L72.1881 14.7884L75.1489 11.8276ZM84.3254 23.71H88.698V14.808L95.6391 1.27863H90.9332L86.5019 9.9649L82.1293 1.27863H77.4431L84.345 14.8865L84.3254 23.71ZM115.09 23.71L118.149 20.6708V14.2002L115.659 11.5335L107.149 9.57274V5.4747H113.796V8.27863H118.149V4.31784L115.09 1.27863H105.874L102.796 4.31784V10.7884L105.345 13.5139L113.796 15.4159V19.5139H107.149V16.71H102.796V20.6904L105.874 23.7296L115.09 23.71ZM101.874 1.25902H98.4234L95.894 6.27863H98.9333L101.874 1.25902Z" fill="#95928E"/>
</svg>
