<svg width="76" height="25" viewBox="0 0 76 25" fill="none" xmlns="http://www.w3.org/2000/svg">
<mask id="mask0_2004_26068" style="mask-type:luminance" maskUnits="userSpaceOnUse" x="0" y="0" width="76" height="25">
<path d="M74.634 16.6056C74.5401 16.6056 74.3523 16.6995 74.3523 16.8872C73.6027 19.0437 72.5714 20.3567 71.7264 20.3567C71.2569 20.3567 71.0706 19.7933 71.0706 18.9498C71.0706 16.7933 72.3836 12.1987 73.0393 10.1361C73.1332 9.85448 73.1332 9.6667 73.1332 9.48039C73.1332 8.91707 72.7577 8.54298 72.008 8.54298C71.1645 8.54298 70.1332 8.91853 69.2882 10.5117C69.0066 9.10484 67.9753 8.4491 66.6623 8.4491C65.0677 8.4491 63.5684 9.48039 62.3494 11.075C61.1303 12.6696 59.6296 13.2315 58.5983 12.9498C59.3479 10.9811 59.7234 9.57428 59.7234 8.54298C59.7234 6.85448 58.8799 5.82318 57.567 5.82318C55.5044 5.82318 54.3792 7.79188 54.3792 9.85594C54.3792 11.4506 55.1288 13.0437 56.6296 13.8887C55.3166 16.8887 53.3479 19.6085 52.6907 19.6085C51.7533 19.6085 51.4716 15.0139 51.5655 11.6383C51.5655 9.76352 51.7533 9.66963 51.7533 9.10631C51.7533 8.73076 51.5655 8.54298 50.722 8.54298C48.7533 8.54298 48.0961 10.2315 48.0022 12.2002C48.0022 12.9498 47.8144 13.7009 47.6266 14.3567C46.7831 17.3567 45.0946 19.6085 43.9694 19.6085C43.4061 19.6085 43.3137 19.0452 43.3137 18.3894C43.3137 16.233 44.5327 13.5132 44.5327 11.2628C44.5327 9.57428 43.7831 8.54298 42.3763 8.54298C40.7816 8.54298 38.5313 10.5117 36.5626 14.1689C37.2183 11.3552 37.5 8.63687 35.5313 8.63687C35.0618 8.63687 34.6878 8.73076 34.3122 8.91853C34.0305 9.01242 33.8428 9.29408 33.9367 9.57428C34.1244 12.5743 31.4985 20.1704 29.0604 20.1704C28.5909 20.1704 28.4046 19.7009 28.4046 18.9513C28.4046 16.7948 29.7176 12.2941 30.3733 10.1376C30.4672 9.85594 30.4672 9.66817 30.4672 9.38797C30.4672 8.82465 30.0917 8.54445 29.342 8.54445C28.4985 8.54445 27.4672 8.92 26.6222 10.5132C26.3406 9.10631 25.3093 8.45056 23.9963 8.45056C21.7459 8.45056 19.3078 10.7948 18.2765 13.7948C16.8697 17.8276 13.8697 21.765 9.93079 21.765C6.36746 21.765 4.49265 18.765 4.49265 14.0765C4.02321 7.41927 8.99338 1.88577 12.6506 1.88577C14.4315 1.88577 15.2765 3.01096 15.2765 4.69946C15.2765 6.76206 14.1513 7.79335 14.1513 8.54445C14.1513 8.82611 14.3391 9.01389 14.7146 9.01389C16.3093 9.01389 18.1841 7.13907 18.1841 4.51316C18.1841 1.88724 16.1215 0.200198 12.4643 0.200198C6.36893 0.195797 0.179688 6.29115 0.179688 14.1674C0.179688 20.4506 3.27357 24.2002 8.6193 24.2002C12.2765 24.2002 15.4643 21.3865 17.1528 18.011C17.3406 20.7308 18.5596 22.23 20.5283 22.23C22.2169 22.23 23.6222 21.1987 24.6535 19.4163C25.0291 21.2912 26.1543 22.1361 27.4672 22.1361C29.0618 22.1361 30.3748 21.1048 31.6863 19.2286C31.6863 20.7293 31.9679 22.0423 33.2809 22.0423C33.8442 22.0423 34.5939 21.9484 34.6878 21.3865C36.0007 15.8545 39.3763 11.3537 40.3137 11.3537C40.5953 11.3537 40.6892 11.6354 40.6892 12.0095C40.6892 13.5102 39.6579 16.6041 39.6579 18.5728C39.6579 20.7293 40.5953 22.1361 42.4716 22.1361C44.5342 22.1361 46.6907 19.6041 48.0036 15.853C48.4731 19.3224 49.4105 22.1361 50.9112 22.1361C52.6922 22.1361 55.9753 18.2911 57.944 14.2599C58.6936 14.3537 59.9127 14.3537 60.944 13.5102C60.4745 14.7293 60.1944 16.0422 60.1944 17.3552C60.1944 21.1063 61.9753 22.1376 63.5699 22.1376C65.2584 22.1376 66.6638 21.1063 67.6951 19.3239C68.0706 20.9185 68.9142 22.0437 70.5088 22.0437C73.0408 22.0437 75.2912 19.4178 75.2912 17.3552C75.1958 16.9811 74.9142 16.6056 74.634 16.6056ZM22.0276 20.1689C20.9963 20.1689 20.6208 19.1376 20.6208 17.6369C20.6208 15.011 22.4017 10.5102 24.3719 10.5102C25.2154 10.5102 25.497 11.5415 25.497 12.7606C25.497 15.3865 23.81 20.1689 22.0276 20.1689ZM57.0975 12.1987C56.4418 11.4491 56.254 10.5102 56.254 9.57281C56.254 8.44763 56.6296 7.60411 57.0975 7.60411C57.567 7.60411 57.7533 8.07355 57.7533 8.72929C57.7547 9.76059 57.3792 11.3552 57.0975 12.1987ZM65.0692 20.1689C64.0379 20.1689 63.6623 18.9498 63.6623 17.6369C63.6623 15.1048 65.4433 10.5102 67.4134 10.5102C68.2569 10.5102 68.5386 11.5415 68.5386 12.7606C68.5386 15.3865 66.8501 20.1689 65.0692 20.1689Z" fill="white"/>
</mask>
<g mask="url(#mask0_2004_26068)">
<path d="M75.4779 -1.11719H-0.101562V25.4192H75.4779V-1.11719Z" fill="#95928E"/>
</g>
</svg>
