<svg xmlns="http://www.w3.org/2000/svg" width="131" height="26" fill="none"><g fill="#95928E" clip-path="url(#a)"><path d="M16.029 5.175 8.512 9.973l7.517 4.797-7.517 4.798L.996 14.73l7.516-4.797L.996 5.175 8.512.377l7.517 4.798ZM8.472 21.087l7.517-4.797 7.516 4.797-7.516 4.798-7.517-4.798Zm7.557-6.357 7.516-4.797-7.516-4.758L23.505.377l7.517 4.798-7.517 4.798 7.517 4.797-7.517 4.798-7.476-4.838ZM36.902 5.176h6.077c3.879 0 7.077 2.24 7.077 7.357v1.08c0 5.157-2.999 7.476-6.957 7.476h-6.197V5.176ZM40.3 8.055V18.17h2.6c2.198 0 3.678-1.439 3.678-4.638v-.84c0-3.198-1.56-4.637-3.799-4.637H40.3Zm11.555.16h2.72l.439 2.998c.52-2.039 1.839-3.118 4.238-3.118h.84v3.438h-1.4c-2.759 0-3.438.96-3.438 3.679v5.917h-3.359V8.215h-.04Zm8.916 6.717v-.36c0-4.318 2.759-6.677 6.517-6.677 3.839 0 6.517 2.359 6.517 6.677v.36c0 4.238-2.598 6.517-6.517 6.517-4.158-.04-6.517-2.28-6.517-6.517Zm9.596-.04v-.32c0-2.399-1.2-3.838-3.119-3.838-1.879 0-3.118 1.32-3.118 3.838v.32c0 2.319 1.2 3.638 3.118 3.638 1.92-.04 3.119-1.32 3.119-3.638Zm5.198-6.677h2.798l.32 2.439c.68-1.64 2.12-2.76 4.238-2.76 3.279 0 5.438 2.36 5.438 6.718v.36c0 4.238-2.399 6.477-5.438 6.477-2.039 0-3.438-.92-4.118-2.4v6.518h-3.278l.04-17.352Zm9.395 6.677v-.28c0-2.559-1.319-3.838-3.078-3.838-1.88 0-3.119 1.439-3.119 3.838v.24c0 2.279 1.2 3.718 3.079 3.718 1.919-.04 3.118-1.28 3.118-3.678Zm8.357 3.838-.28 2.359h-2.879V3.897h3.279v6.597c.72-1.68 2.159-2.6 4.198-2.6 3.078.04 5.357 2.16 5.357 6.438v.4c0 4.278-2.159 6.717-5.437 6.717-2.16-.04-3.559-1.04-4.238-2.719Zm6.237-3.998v-.32c0-2.359-1.28-3.678-3.079-3.678-1.839 0-3.118 1.479-3.118 3.718v.28c0 2.399 1.24 3.798 3.078 3.798 1.96 0 3.119-1.24 3.119-3.798Zm4.878.2v-.36c0-4.318 2.758-6.677 6.517-6.677 3.838 0 6.517 2.359 6.517 6.677v.36c0 4.238-2.639 6.517-6.517 6.517-4.158-.04-6.517-2.28-6.517-6.517Zm9.635-.04v-.32c0-2.399-1.199-3.838-3.118-3.838-1.879 0-3.119 1.32-3.119 3.838v.32c0 2.319 1.2 3.638 3.119 3.638 1.919-.04 3.118-1.32 3.118-3.638Zm7.797-.48-4.518-6.197h3.878l2.599 3.878 2.639-3.878h3.838l-4.598 6.157 4.838 6.717h-3.798l-2.959-4.278-2.879 4.278h-3.958l4.918-6.677Z"/></g><defs><clipPath id="a"><path fill="#fff" d="M.996.377h129.542v25.51H.996z"/></clipPath></defs></svg>