<svg width="18" height="18" viewBox="0 0 18 18" fill="none" xmlns="http://www.w3.org/2000/svg">
<g clip-path="url(#clip0_803_5979)">
<path d="M17.9999 9.19996C17.9999 8.46208 17.9386 7.92363 17.806 7.36523H9.18359V10.6957H14.2448C14.1428 11.5233 13.5918 12.7697 12.3672 13.6073L12.3501 13.7188L15.0763 15.7826L15.2652 15.8011C16.9999 14.2355 17.9999 11.9321 17.9999 9.19996Z" fill="#4285F4"/>
<path d="M9.18067 17.9748C11.6602 17.9748 13.7418 17.177 15.2623 15.801L12.3643 13.6072C11.5888 14.1357 10.548 14.5047 9.18067 14.5047C6.75211 14.5047 4.6909 12.9392 3.95614 10.7754L3.84844 10.7843L1.01363 12.9282L0.976562 13.0289C2.48675 15.9605 5.5888 17.9748 9.18067 17.9748Z" fill="#34A853"/>
<path d="M3.95914 10.7747C3.76527 10.2163 3.65307 9.61796 3.65307 8.99976C3.65307 8.38149 3.76527 7.78323 3.94894 7.22484L3.94381 7.10591L1.07348 4.92761L0.979568 4.97126C0.357147 6.18779 0 7.55391 0 8.99976C0 10.4456 0.357147 11.8117 0.979568 13.0282L3.95914 10.7747Z" fill="#FBBC05"/>
<path d="M9.18457 3.49616C10.909 3.49616 12.0723 4.22407 12.7356 4.83237L15.3274 2.35944C13.7356 0.913584 11.6641 0.026123 9.18457 0.026123C5.59271 0.026123 2.49066 2.04034 0.980469 4.97191L3.94985 7.22549C4.69481 5.06169 6.75602 3.49616 9.18457 3.49616Z" fill="#EB4335"/>
</g>
<defs>
<clipPath id="clip0_803_5979">
<rect width="18" height="18" fill="white"/>
</clipPath>
</defs>
</svg>
