<svg width="122" height="30" viewBox="0 0 122 30" fill="none" xmlns="http://www.w3.org/2000/svg">
<path fill-rule="evenodd" clip-rule="evenodd" d="M37.209 21.9361C36.763 21.7661 36.471 21.4061 36.471 20.9261C36.471 20.3451 36.951 19.8661 37.535 19.8661C37.707 19.8661 37.845 19.9001 37.965 19.9511C38.7614 20.3184 39.629 20.5055 40.506 20.4991C42.293 20.4991 43.134 19.6441 43.134 18.0001V17.5551C42.361 18.4801 41.52 19.0451 40.129 19.0451C37.982 19.0451 36.041 17.4871 36.041 14.7651V14.7321C36.041 11.9931 38.016 10.4531 40.129 10.4531C41.554 10.4531 42.395 11.0531 43.099 11.8231V11.8051C43.099 11.1031 43.683 10.5221 44.405 10.5221C45.125 10.5221 45.709 11.1031 45.709 11.8221V17.7271C45.709 19.3701 45.315 20.5671 44.542 21.3371C43.683 22.1941 42.361 22.5701 40.575 22.5701C39.4224 22.5803 38.279 22.3649 37.209 21.9361ZM43.134 14.7661V14.7321C43.134 13.4821 42.154 12.6091 40.884 12.6091C39.614 12.6091 38.652 13.4821 38.652 14.7321V14.7661C38.652 16.0321 39.614 16.8881 40.884 16.8881C42.154 16.8881 43.134 16.0151 43.134 14.7661ZM47.187 11.8221C47.187 11.1031 47.771 10.5221 48.492 10.5221C49.214 10.5221 49.797 11.1031 49.797 11.8221V12.2321C50.175 11.3431 50.793 10.5221 51.567 10.5221C52.374 10.5221 52.837 11.0521 52.837 11.7881C52.837 12.4721 52.391 12.8831 51.858 13.0031C50.536 13.3121 49.798 14.3211 49.798 16.1691V18.5991C49.798 19.3181 49.214 19.9001 48.492 19.9001C48.321 19.9005 48.1515 19.8672 47.9933 19.8021C47.8351 19.737 47.6913 19.6413 47.5701 19.5206C47.4489 19.3998 47.3527 19.2564 47.287 19.0985C47.2212 18.9406 47.1873 18.7712 47.187 18.6001V11.8221ZM52.528 17.1621V17.1281C52.528 15.1251 54.056 14.2011 56.238 14.2011C57.165 14.2011 57.835 14.3551 58.488 14.5771V14.4231C58.488 13.3461 57.818 12.7461 56.513 12.7461C55.9021 12.7396 55.2938 12.8263 54.709 13.0031C54.5883 13.0479 54.4607 13.0712 54.332 13.0721C54.1909 13.0748 54.0506 13.0493 53.9195 12.9971C53.7883 12.9449 53.6688 12.8671 53.5681 12.7683C53.4674 12.6694 53.3873 12.5514 53.3327 12.4212C53.2781 12.2911 53.25 12.1513 53.25 12.0101C53.25 11.5481 53.54 11.1551 53.954 11.0001C54.778 10.6921 55.671 10.5221 56.89 10.5221C58.315 10.5221 59.346 10.8981 59.998 11.5481C60.685 12.2321 60.995 13.2431 60.995 14.4751V18.6501C60.995 19.3521 60.428 19.9001 59.724 19.9001C58.968 19.9001 58.47 19.3701 58.47 18.8221V18.8041C57.835 19.5061 56.96 19.9681 55.688 19.9681C53.954 19.9681 52.528 18.9761 52.528 17.1621ZM58.522 16.5621V16.1011C57.9971 15.8705 57.4293 15.7536 56.856 15.7581C55.739 15.7581 55.053 16.2031 55.053 17.0251V17.0591C55.053 17.7611 55.637 18.1721 56.478 18.1721C57.698 18.1721 58.522 17.5041 58.522 16.5621ZM62.386 11.8221C62.386 11.1031 62.97 10.5221 63.692 10.5221C64.413 10.5221 64.997 11.1031 64.997 11.8221V11.9251C65.597 11.1551 66.388 10.4531 67.71 10.4531C68.912 10.4531 69.822 10.9831 70.303 11.9081C71.11 10.9671 72.073 10.4531 73.325 10.4531C75.266 10.4531 76.435 11.6171 76.435 13.8251V18.5991C76.435 19.3181 75.85 19.9001 75.129 19.9001C74.9579 19.9005 74.7884 19.8672 74.6301 19.8021C74.4719 19.737 74.328 19.6413 74.2068 19.5206C74.0855 19.3999 73.9892 19.2565 73.9233 19.0986C73.8575 18.9406 73.8234 18.7713 73.823 18.6001V14.6801C73.823 13.4481 73.273 12.8151 72.295 12.8151C71.316 12.8151 70.715 13.4481 70.715 14.6801V18.6001C70.715 19.3181 70.132 19.9001 69.41 19.9001C69.0646 19.9007 68.7331 19.764 68.4884 19.5203C68.2437 19.2765 68.1058 18.9456 68.105 18.6001V14.6801C68.105 13.4481 67.555 12.8151 66.577 12.8151C65.597 12.8151 64.997 13.4481 64.997 14.6801V18.6001C64.997 19.3181 64.413 19.9001 63.692 19.9001C63.5209 19.9007 63.3513 19.8675 63.193 19.8024C63.0347 19.7373 62.8908 19.6417 62.7695 19.5209C62.6482 19.4002 62.5519 19.2567 62.4861 19.0987C62.4203 18.9407 62.3863 18.7713 62.386 18.6001V11.8221ZM77.843 11.8221C77.843 11.1031 78.427 10.5221 79.148 10.5221C79.87 10.5221 80.454 11.1031 80.454 11.8221V11.9251C81.054 11.1551 81.844 10.4531 83.167 10.4531C84.369 10.4531 85.279 10.9831 85.76 11.9081C86.567 10.9671 87.529 10.4531 88.782 10.4531C90.723 10.4531 91.891 11.6171 91.891 13.8251V18.5991C91.891 19.3181 91.307 19.9001 90.585 19.9001C90.2396 19.9007 89.9081 19.764 89.6634 19.5203C89.4187 19.2765 89.2808 18.9456 89.28 18.6001V14.6801C89.28 13.4481 88.73 12.8151 87.752 12.8151C86.772 12.8151 86.172 13.4481 86.172 14.6801V18.6001C86.172 19.3181 85.588 19.9001 84.867 19.9001C84.6959 19.9005 84.5265 19.8672 84.3683 19.8021C84.2101 19.737 84.0663 19.6413 83.9451 19.5206C83.8239 19.3998 83.7277 19.2564 83.662 19.0985C83.5963 18.9406 83.5623 18.7712 83.562 18.6001V14.6801C83.562 13.4481 83.012 12.8151 82.033 12.8151C81.054 12.8151 80.453 13.4481 80.453 14.6801V18.6001C80.453 19.3181 79.87 19.9001 79.148 19.9001C78.977 19.9005 78.8075 19.8672 78.6493 19.8021C78.4911 19.737 78.3473 19.6413 78.2261 19.5206C78.1049 19.3998 78.0087 19.2564 77.943 19.0985C77.8773 18.9406 77.8433 18.7712 77.843 18.6001V11.8221ZM92.75 17.1621V17.1281C92.75 15.1251 94.279 14.2011 96.46 14.2011C97.2259 14.1942 97.987 14.3215 98.709 14.5771V14.4231C98.709 13.3461 98.039 12.7461 96.734 12.7461C96.013 12.7461 95.429 12.8491 94.931 13.0031C94.8103 13.0479 94.6827 13.0712 94.554 13.0721C94.4128 13.0751 94.2723 13.0498 94.141 12.9977C94.0097 12.9456 93.89 12.8678 93.7892 12.7689C93.6883 12.67 93.6082 12.5519 93.5535 12.4216C93.4989 12.2913 93.4709 12.1514 93.471 12.0101C93.471 11.5481 93.764 11.1551 94.175 11.0001C95 10.6921 95.893 10.5221 97.112 10.5221C98.538 10.5221 99.568 10.8981 100.22 11.5481C100.907 12.2321 101.216 13.2431 101.216 14.4751V18.6501C101.216 18.816 101.183 18.9802 101.119 19.1332C101.055 19.2861 100.961 19.4248 100.843 19.5412C100.725 19.6575 100.584 19.7492 100.431 19.8108C100.277 19.8724 100.112 19.9028 99.946 19.9001C99.19 19.9001 98.692 19.3701 98.692 18.8221V18.8041C98.057 19.5061 97.18 19.9681 95.91 19.9681C94.175 19.9681 92.75 18.9761 92.75 17.1621ZM98.744 16.5621V16.1011C98.2191 15.8706 97.6513 15.7537 97.078 15.7581C95.961 15.7581 95.275 16.2031 95.275 17.0251V17.0591C95.275 17.7611 95.858 18.1721 96.7 18.1721C97.919 18.1721 98.744 17.5041 98.744 16.5621ZM102.608 11.8221C102.608 11.1031 103.192 10.5221 103.913 10.5221C104.635 10.5221 105.218 11.1031 105.218 11.8221V12.2321C105.596 11.3431 106.214 10.5221 106.988 10.5221C107.794 10.5221 108.258 11.0521 108.258 11.7881C108.258 12.4721 107.811 12.8831 107.279 13.0031C105.957 13.3121 105.218 14.3211 105.218 16.1691V18.5991C105.218 19.3181 104.635 19.9001 103.913 19.9001C103.568 19.9007 103.236 19.764 102.991 19.5203C102.747 19.2765 102.609 18.9456 102.608 18.6001V11.8221ZM109.048 8.50215C109.048 7.78215 109.632 7.20215 110.353 7.20215C111.075 7.20215 111.659 7.78215 111.659 8.50215V18.5991C111.659 19.3181 111.075 19.9001 110.353 19.9001C110.008 19.9007 109.676 19.764 109.431 19.5203C109.187 19.2765 109.049 18.9456 109.048 18.6001V8.50215ZM113.737 22.3471C113.359 22.2111 112.912 21.9021 112.912 21.2701C112.909 21.1325 112.934 20.9956 112.984 20.8675C113.034 20.7393 113.11 20.6225 113.206 20.5237C113.301 20.4249 113.416 20.3461 113.543 20.292C113.669 20.2378 113.805 20.2093 113.943 20.2081C114.149 20.2081 114.269 20.2421 114.372 20.2771C114.595 20.3451 114.733 20.3801 114.922 20.3801C115.385 20.3801 115.609 20.2941 115.849 19.8321L115.935 19.6261L112.793 12.3701C112.714 12.1791 112.668 11.9764 112.655 11.7701C112.655 11.0351 113.222 10.5221 113.943 10.5221C114.595 10.5221 114.973 10.8811 115.196 11.4971L117.189 16.8371L119.112 11.5141C119.318 10.9671 119.695 10.5221 120.366 10.5221C121.035 10.5221 121.601 11.0351 121.601 11.7201C121.601 11.9251 121.533 12.2161 121.482 12.3361L118.27 20.0201C117.497 21.8851 116.725 22.5871 115.162 22.5871C114.578 22.5871 114.166 22.5021 113.737 22.3471Z" fill="#95928E"/>
<path fill-rule="evenodd" clip-rule="evenodd" d="M14.554 29.4143C22.431 29.4143 28.817 23.0503 28.817 15.2003C28.817 7.35033 22.431 0.986328 14.554 0.986328C6.67702 0.986328 0.291016 7.35033 0.291016 15.2003C0.291016 23.0503 6.67702 29.4143 14.554 29.4143ZM17.4158 19.0534C16.9408 19.0534 16.5018 18.7344 16.4178 18.2694C16.3916 18.1299 16.3965 17.9863 16.4322 17.8489C16.4679 17.7115 16.5334 17.5837 16.6241 17.4746C16.7148 17.3654 16.8285 17.2776 16.9571 17.2174C17.0856 17.1572 17.2259 17.1261 17.3678 17.1264H22.6148V22.6124C22.6143 22.7543 22.5826 22.8943 22.522 23.0225C22.4613 23.1508 22.3732 23.2641 22.2638 23.3545C22.1544 23.4449 22.0265 23.5101 21.8891 23.5455C21.7517 23.5809 21.6082 23.5856 21.4688 23.5594C21.0018 23.4754 20.6818 23.0374 20.6818 22.5654V21.6494L20.8638 20.6354C20.0805 21.5373 19.1118 22.2596 18.0239 22.753C16.936 23.2464 15.7544 23.4993 14.5598 23.4944C9.7688 23.4944 5.9178 19.5444 6.1958 14.7044C6.4358 10.5464 9.8108 7.14538 13.9808 6.86638C15.4803 6.76084 16.9806 7.06073 18.3243 7.7346C19.668 8.40848 20.8056 9.4315 21.6178 10.6964C21.7391 10.9045 21.7768 11.1508 21.7234 11.3857C21.6699 11.6205 21.5292 11.8263 21.3298 11.9614C20.8908 12.2644 20.2868 12.1044 19.9828 11.6674C18.8368 10.0624 16.8388 8.73338 14.5598 8.73338C10.1868 8.73338 6.8318 13.1044 8.5938 17.6834C9.3708 19.7004 11.2108 21.1454 13.3528 21.4804C15.9838 21.8914 18.3898 20.9594 19.7758 18.9334L18.9098 19.0534H17.4158Z" fill="#95928E"/>
</svg>
