<svg width="38" height="38" viewBox="0 0 38 38" fill="none" xmlns="http://www.w3.org/2000/svg">
<path fill-rule="evenodd" clip-rule="evenodd" d="M19 0.625488C8.85177 0.625488 0.625 8.85226 0.625 19.0004C0.625 29.1487 8.85177 37.3754 19 37.3754C29.1482 37.3754 37.375 29.1487 37.375 19.0004C37.375 8.85226 29.1482 0.625488 19 0.625488ZM14.5619 10.7213C14.5619 11.9478 13.4987 12.9422 12.1872 12.9422C10.8757 12.9422 9.8125 11.9478 9.8125 10.7213C9.8125 9.49465 10.8757 8.5003 12.1872 8.5003C13.4987 8.5003 14.5619 9.49465 14.5619 10.7213ZM10.1372 14.5747H14.1965V26.8754H10.1372V14.5747ZM16.6727 14.5747H20.7319V16.1528C21.4133 15.286 22.7214 14.3279 24.8319 14.3279C28.3855 14.3279 29.4656 16.238 29.5 20.3833V26.8754H25.4407C25.4407 26.0732 25.4352 25.2666 25.4296 24.4604C25.4216 23.3167 25.4138 22.1735 25.4218 21.0439C25.4323 19.5706 25.4457 17.6688 23.2082 17.6688C21.2281 17.6688 20.7319 19.1285 20.7319 20.5817V26.8754H16.6727V14.5747Z" fill="#E5E5E5"/>
</svg>
