<svg width="122" height="29" viewBox="0 0 122 29" fill="none" xmlns="http://www.w3.org/2000/svg">
<path d="M4.62918 17.5545C4.62918 19.5345 5.12324 19.8891 6.5472 20.659V20.8953H0.179688V20.659C1.54572 19.8905 2.01066 19.5359 2.01066 17.5545V3.53983C2.01051 1.5598 1.54556 1.20515 0.179688 0.436729V0.200352H9.368C13.5841 0.200352 16.986 1.6485 16.986 5.67035C16.986 9.33663 13.9634 10.815 10.967 10.8444V10.9626C13.5536 11.2877 14.8053 12.5585 15.5032 14.7176L16.346 17.2001C17.0145 19.2984 17.9444 19.95 19.6592 20.6596V20.896H15.0097C14.4574 19.6844 14.2831 19.1523 13.7309 17.7028L12.8009 14.8953C12.0161 12.5901 11.2313 11.4653 8.43934 11.4653H4.63011L4.62887 17.5545H4.62918ZM8.93248 10.2809C11.6935 10.2809 14.0789 9.21695 14.0789 5.69804C14.0789 2.5951 11.9864 1.35173 8.93248 1.35173H4.62887V10.2809H8.93248ZM23.0357 15.3905C23.0357 17.4348 23.8533 19.3624 26.1601 19.3624C28.4668 19.3624 30.279 17.3774 30.279 13.8785V9.22509C30.279 7.56591 29.4322 7.00289 28.2643 6.26216V6.08444H32.91V17.584C32.91 19.5988 33.3187 19.8654 34.6036 20.6964V20.9038H30.2806V17.1688C29.4628 19.7776 27.6525 21.2004 25.1098 21.2004C22.1021 21.2004 20.4354 19.1856 20.4354 15.9536V9.22493C20.4354 7.56575 19.5594 7.00273 18.4206 6.262V6.08429H23.0366L23.0357 15.3905ZM37.8753 13.6609C37.8753 9.6714 39.7124 7.27775 42.4829 7.27775C44.5241 7.27775 46.9154 8.7553 46.9154 12.0356V14.0449C46.9154 16.9409 45.1365 19.512 42.4245 19.512C39.5667 19.512 37.8753 17.2072 37.8753 13.6609ZM35.0174 13.6609C35.0174 18.4482 37.8169 21.1669 41.5205 21.1669C44.2909 21.1669 46.2155 19.3643 46.9154 17.2072L46.9445 20.8124C46.9445 24.6541 45.6614 26.8705 42.6577 26.8705C40.4998 26.8705 38.3127 25.2747 37.8753 22.3195L35.0466 23.0878C35.9214 27.0182 39.1001 28.2002 41.9871 28.2002C46.682 28.2002 49.5107 25.5997 49.5399 20.8124V12.5675C49.5399 9.87837 49.5399 7.57326 49.9482 5.8002H49.5691C48.5193 6.39122 47.6153 7.48472 47.2653 8.81444C46.5654 7.24834 44.5824 5.8002 41.8996 5.8002C38.1669 5.8002 35.0174 8.87357 35.0174 13.6609ZM54.4179 13.6609C54.4179 9.6714 56.255 7.27775 59.0254 7.27775C61.0667 7.27775 63.458 8.7553 63.458 12.0356V14.0449C63.458 16.9409 61.6791 19.512 58.967 19.512C56.1093 19.512 54.4179 17.2072 54.4179 13.6609ZM51.5599 13.6609C51.5599 18.4482 54.3595 21.1669 58.063 21.1669C60.8334 21.1669 62.7581 19.3643 63.458 17.2072L63.4871 20.8124C63.4871 24.6541 62.2039 26.8705 59.2003 26.8705C57.0424 26.8705 54.8552 25.2747 54.4179 22.3195L51.5892 23.0878C52.4639 27.0182 55.6426 28.2002 58.5297 28.2002C63.2246 28.2002 66.0532 25.5997 66.0825 20.8124V12.5675C66.0825 9.87837 66.0825 7.57326 66.4908 5.8002H66.1116C65.0619 6.39122 64.1579 7.48472 63.8078 8.81444C63.108 7.24834 61.1249 5.8002 58.4422 5.8002C54.7095 5.8002 51.5599 8.87357 51.5599 13.6609ZM82.7635 5.77986H83.1441C82.7343 7.55824 82.7343 9.87227 82.7343 12.5708V17.5823C82.7343 19.5978 83.1441 19.8646 84.4322 20.696V20.9035H80.1278L80.0985 17.2262C79.3959 19.3901 77.4638 21.2002 74.6802 21.2002C70.9607 21.2002 68.1492 18.4718 68.1492 13.6681C68.1492 8.86418 71.3108 5.77986 75.061 5.77986C77.7542 5.77986 79.7468 7.23223 80.4501 8.80458C80.8013 7.47017 81.7093 6.37291 82.7635 5.77986ZM80.0996 12.0369C80.0996 8.74701 77.6992 7.26273 75.6479 7.26273C72.8671 7.26273 71.0204 9.66358 71.0204 13.6681C71.0204 17.2248 72.7182 19.5395 75.5894 19.5395C78.3119 19.5395 80.0996 16.9608 80.0996 14.0532V12.0369ZM86.0092 21.2002H85.6612C86.0384 19.4262 86.0384 17.1182 86.0384 14.4856V3.39325C86.0384 1.73767 85.1972 1.1759 84.008 0.466296V0.200352H88.6507V9.78263C89.3469 7.59485 91.2612 5.81881 94.0193 5.81881C97.6757 5.81881 100.491 8.54036 100.491 13.2728C100.491 18.1239 97.3581 21.2002 93.6129 21.2002C90.9445 21.2002 89.0282 19.7515 88.2737 18.1535C87.9535 19.5141 87.0541 20.6086 86.0092 21.2002ZM88.6487 14.9886C88.6487 18.1816 91.0272 19.6915 93.0309 19.6915C95.7864 19.6915 97.6446 17.3262 97.6446 13.2729C97.6446 9.78279 95.9333 7.47533 93.1178 7.47533C90.4493 7.47533 88.6487 10.077 88.6487 12.9772V14.9886ZM105.424 17.673C105.424 19.6237 105.833 19.8896 107.089 20.689V20.8958H101.217V20.689C102.473 19.891 102.881 19.6251 102.881 17.673V3.27373C102.881 1.64834 102.005 1.11645 100.896 0.407162V0.200195H105.425L105.424 17.673ZM121.18 13.2224H110.611C110.611 17.1363 112.468 19.5678 115.634 19.5678C117.897 19.5678 119.524 18.4415 120.425 16.1002L121.034 16.3076C120.366 19.4195 118.19 21.2002 114.849 21.2002C110.959 21.2002 107.794 18.4721 107.794 13.6687C107.794 8.86544 110.901 5.77986 114.734 5.77986C118.828 5.77986 121.18 8.5377 121.18 13.2224ZM118.363 12.0665C118.305 9.48806 117.55 6.99632 114.704 6.99632C112.354 6.99632 110.93 9.04111 110.669 12.0665H118.363Z" fill="#95928E"/>
</svg>
