<svg width="37" height="37" viewBox="0 0 37 37" fill="none" xmlns="http://www.w3.org/2000/svg">
<path d="M36.9492 18.4751C36.9492 8.32687 28.7225 0.100098 18.5742 0.100098C8.42599 0.100098 0.199219 8.32687 0.199219 18.4751C0.199219 28.6233 8.42599 36.8501 18.5742 36.8501C28.7225 36.8501 36.9492 28.6233 36.9492 18.4751Z" fill="#E5E5E5"/>
<mask id="mask0_803_3266" style="mask-type:luminance" maskUnits="userSpaceOnUse" x="9" y="9" width="19" height="19">
<path d="M9.38672 9.2876H27.7617V27.6626H9.38672V9.2876Z" fill="white"/>
</mask>
<g mask="url(#mask0_803_3266)">
<path d="M20.3223 17.0682L27.1628 9.2876H25.5418L19.6022 16.0434L14.8583 9.2876H9.38672L16.5605 19.5035L9.38672 27.6626H11.0078L17.2802 20.5283L22.2902 27.6626H27.7617L20.3223 17.0682ZM18.1021 19.5936L17.3751 18.5762L11.5919 10.4817H14.0818L18.7489 17.0142L19.4757 18.0315L25.5426 26.5229H23.0527L18.1021 19.5936Z" fill="#1A1A1A"/>
</g>
</svg>
