<svg width="137" height="24" viewBox="0 0 137 24" fill="none" xmlns="http://www.w3.org/2000/svg">
<path fill-rule="evenodd" clip-rule="evenodd" d="M36.5546 0.831543L24.923 23.5684H13.9964L18.864 14.1452H18.6467C14.628 19.3583 8.63728 22.7903 0.0996094 23.5684V14.2753C0.0996094 14.2753 5.56104 13.9532 8.77245 10.5781H0.0996094V0.831543H9.84756V8.84754H10.0661L14.0494 0.831543H21.421V8.79702H21.6396L25.7707 0.831543H36.5533H36.5546Z" fill="#95928E"/>
<path d="M99.9863 21.0584H103.126V3.04199H99.9863V21.0584Z" fill="#95928E"/>
<path fill-rule="evenodd" clip-rule="evenodd" d="M82.6812 20.8739C83.3634 21.1581 84.057 21.2995 84.7619 21.2995C85.9267 21.2995 86.9702 21.0166 87.89 20.4494C88.8087 19.8835 89.5499 19.0707 90.0288 18.1037C90.5341 17.0995 90.7868 15.9614 90.7868 14.6882C90.7868 13.4162 90.5266 12.2781 90.0061 11.2739C89.5181 10.3053 88.7644 9.49561 87.8331 8.93954C86.9046 8.37996 85.8497 8.10459 84.6697 8.11217C83.9193 8.11217 83.1979 8.25743 82.5081 8.54922C81.7933 8.84278 81.1644 9.31253 80.6801 9.9147V3.05322H77.5293V21.0583H80.6573L80.651 19.377C81.1995 20.0302 81.8953 20.5424 82.6812 20.8739ZM85.9002 17.9661C85.3873 18.2793 84.8011 18.4372 84.1404 18.4372C83.4897 18.4372 82.8909 18.2755 82.3464 17.9547C81.804 17.6267 81.3564 17.163 81.0477 16.6094C80.727 16.0165 80.5647 15.3508 80.5765 14.6768C80.5689 13.9568 80.7218 13.3126 81.0363 12.7454C81.3389 12.1902 81.7881 11.7288 82.3351 11.4115C82.8796 11.0907 83.4822 10.9328 84.1416 10.9404C84.7998 10.9328 85.3873 11.0869 85.9002 11.4002C86.422 11.7071 86.8199 12.148 87.0966 12.7227C87.3796 13.2911 87.5223 13.9416 87.5223 14.6768C87.5223 15.4132 87.3796 16.065 87.0966 16.6322C86.8199 17.1993 86.422 17.6427 85.9002 17.9661Z" fill="#95928E"/>
<path d="M41.1035 4.13477H44.6914L47.9003 15.8531L51.3151 4.13477H54.3054L58.007 15.6181L61.0896 4.13477H64.3781L59.5256 21.0586H56.4329L52.6681 9.84045L49.2104 21.0586H46.0836L41.1035 4.13477Z" fill="#95928E"/>
<path fill-rule="evenodd" clip-rule="evenodd" d="M69.6755 21.3576C68.4248 21.3652 67.2992 21.0886 66.2948 20.5303C65.3091 19.9738 64.4939 19.1588 63.9374 18.1732C63.3689 17.169 63.0859 16.0221 63.0859 14.7349C63.0859 13.4844 63.3765 12.3551 63.9602 11.3433C64.5205 10.3538 65.3392 9.53511 66.3289 8.9749C67.3257 8.40648 68.4375 8.12354 69.6642 8.12354C71.0437 8.12354 72.2515 8.43048 73.2862 9.04311C74.3198 9.64612 75.1368 10.5598 75.6208 11.6541C76.1413 12.7732 76.3296 14.0566 76.1843 15.5054H66.334C66.3618 16.0827 66.5058 16.6069 66.7661 17.0806C67.0566 17.601 67.4634 18.0077 67.9852 18.2995C68.5069 18.5901 69.0893 18.7353 69.7324 18.7353C70.2238 18.7277 70.6799 18.6444 71.1018 18.4827C71.5225 18.3147 71.8788 18.0886 72.1706 17.8044C72.47 17.5214 72.681 17.1981 72.8023 16.8393H76.092C75.8967 17.7127 75.4854 18.5231 74.8957 19.1964C74.2761 19.8939 73.5052 20.4405 72.6419 20.7943C71.7024 21.1842 70.6926 21.376 69.6755 21.3576ZM66.7774 12.3437C66.5935 12.6649 66.4646 13.0146 66.3959 13.3783H72.9248C72.8821 12.9252 72.7341 12.4883 72.4928 12.1025C72.2224 11.655 71.832 11.2923 71.3659 11.0553C70.8691 10.7975 70.316 10.6672 69.7564 10.6764C69.1492 10.6689 68.5506 10.8195 68.0193 11.1134C67.4975 11.404 67.0844 11.8145 66.7774 12.3437Z" fill="#95928E"/>
<path d="M93.1 8.38901C93.1 7.3608 93.3338 6.4488 93.8012 5.65175C94.264 4.85194 94.9467 4.20177 95.7682 3.77849C96.6184 3.32628 97.6127 3.09133 98.7459 3.07617V5.87154C98.2178 5.87912 97.7656 5.99028 97.3891 6.20501C97.0194 6.41423 96.7227 6.73162 96.5389 7.11449C96.3544 7.4808 96.2559 7.90522 96.2407 8.39028H98.6777V11.0454H96.2394V21.0597H93.1V11.0442H91.0762V8.38901H93.1Z" fill="#95928E"/>
<path fill-rule="evenodd" clip-rule="evenodd" d="M111.107 21.335C109.827 21.335 108.681 21.0546 107.668 20.495C106.68 19.9434 105.861 19.1323 105.299 18.1494C104.732 17.1451 104.449 16.007 104.449 14.735C104.449 13.4555 104.732 12.3123 105.299 11.3081C105.854 10.3174 106.674 9.50139 107.668 8.9523C108.68 8.39273 109.827 8.1123 111.107 8.1123C112.396 8.1123 113.545 8.39273 114.556 8.9523C115.556 9.49198 116.382 10.3051 116.937 11.2967C117.505 12.3009 117.791 13.4479 117.799 14.735C117.791 16.007 117.505 17.1451 116.937 18.1494C116.385 19.1389 115.564 19.9521 114.569 20.495C113.549 21.0546 112.396 21.335 111.107 21.335ZM111.107 18.4487C111.782 18.4487 112.379 18.2959 112.901 17.9889C113.423 17.6744 113.824 17.2374 114.109 16.6778C114.392 16.1106 114.533 15.4626 114.533 14.735C114.533 13.9986 114.392 13.3481 114.109 12.7809C113.844 12.2344 113.424 11.7782 112.901 11.4698C112.358 11.1498 111.737 10.9866 111.107 10.9986C110.44 10.9986 109.846 11.1553 109.326 11.4698C108.807 11.7808 108.391 12.2365 108.128 12.7809C107.845 13.3481 107.707 13.9986 107.715 14.735C107.715 15.4626 107.856 16.1119 108.141 16.6778C108.431 17.2374 108.83 17.6757 109.336 17.9889C109.85 18.2959 110.44 18.4487 111.107 18.4487Z" fill="#95928E"/>
<path d="M121.192 8.38916H117.697L121.48 21.0586H124.54L127.028 12.9668L129.714 21.0586H132.727L136.522 8.38916H133.36L131.207 16.2751L128.829 8.38916H125.771L123.404 16.4481L121.192 8.38916Z" fill="#95928E"/>
</svg>
