<svg width="20" height="20" viewBox="0 0 20 20" fill="none" xmlns="http://www.w3.org/2000/svg">
<path fill-rule="evenodd" clip-rule="evenodd" d="M11.6635 10.9686C11.3725 11.087 11.1867 11.5403 10.9982 11.7719C10.9015 11.8905 10.7862 11.909 10.6376 11.8495C9.54563 11.4166 8.70858 10.6913 8.10602 9.69119C8.00394 9.53611 8.02225 9.41359 8.14535 9.26956C8.32729 9.05621 8.55606 8.81387 8.6053 8.52641C8.71459 7.89052 7.87934 5.91803 6.77629 6.8118C3.60224 9.3861 12.0712 16.2138 13.5997 12.521C14.032 11.4742 12.1456 10.772 11.6635 10.9686Z" fill="white"/>
<path d="M17.25 9.95332C17.25 13.9275 14.0082 17.1566 10 17.1566C9.24889 17.1566 8.77405 17.1334 8.35224 17.0404C7.9464 16.951 7.55246 16.7882 6.99557 16.4545C6.71252 16.2849 6.39652 16.2895 6.21973 16.3018C6.00968 16.3164 5.78349 16.3615 5.56815 16.4145C5.17551 16.5113 4.71618 16.6611 4.28818 16.8007C4.24684 16.8142 4.20579 16.8276 4.16512 16.8408C3.73087 16.9822 3.3381 17.1069 3.01902 17.182C3.09378 16.8953 3.20965 16.5482 3.34081 16.1642C3.35337 16.1274 3.36607 16.0903 3.37887 16.0529C3.51509 15.6549 3.66215 15.2251 3.75822 14.8569C3.81079 14.6554 3.85658 14.4415 3.87305 14.2411C3.88684 14.0733 3.8959 13.7658 3.73324 13.4858C3.11215 12.4168 2.75 11.2519 2.75 9.95332C2.75 5.97917 5.99179 2.75 10 2.75C14.0082 2.75 17.25 5.97917 17.25 9.95332ZM2.5627 17.2481C2.56302 17.2478 2.5682 17.248 2.57726 17.2496C2.5669 17.2491 2.56237 17.2483 2.5627 17.2481ZM2.93939 17.6253C2.94066 17.6342 2.94077 17.6393 2.9405 17.6396C2.94024 17.6399 2.9396 17.6354 2.93939 17.6253Z" stroke="white" stroke-width="1.5"/>
</svg>
